<?xml version="1.0" encoding="UTF-8"?>
<svg id="Vrstva_1" data-name="Vrstva 1" xmlns="http://www.w3.org/2000/svg" viewBox="0 0 433.6 220">
  <defs>
    <style>
      .cls-1 {
        fill: #fff;
      }
    </style>
  </defs>
  <path d="M416.04,0l17.55,101.59-176.18,40.78,139.06-15.01c.94.26,1.25,3.73,1.45,4.69,2.96,14.61,6.27,36.88,7.14,51.64.24,4.12.71,5.02-2.98,6.96-8.11,4.26-34.28,7.71-44.57,9.28-75.83,11.59-155.57,10.57-232.25,14.14-28.04,1.31-56.65.74-84.34,5.93l-3.58-57.78c18.27-3.4,36.94-5.39,54.66-11.19,1.51-.49,5.2-1.29,5.78-2.68L0,159.28c.01-.66-.03-1.33,0-1.99,1.13-29.25,3.15-63.68,5.99-93.09.14-1.48.42-3.01,1.17-4.3,25.55-3.41,51.41-4.32,77.02-7.26,25.99-2.99,51.89-8.64,77.95-10.82,28.24-2.37,55.22-2.12,83.63-6.14,42.9-6.07,89.05-16.68,131.55-26.02,12-2.64,24.29-5.16,35.73-9.65h2.99ZM426.03,97.55c-4.56-28.38-7.76-57.12-16.48-84.62-.75-1.31-1.42-.8-2.51-.59-10.63,1.99-22.17,6.86-32.95,9.08l5.04,85.1,46.89-8.97ZM340.1,104.41l-5.32-68.32c-26.96,2.2-52.54,12.45-79.14,16.4-17.32,2.57-35.1,2.17-52.46,4.4-18.05,2.32-35.64,8.65-54.01,7.81-14.19-.64-27.19-2.81-41.95-2.02-10.79.58-22.13,3.19-32.89,4.02-19.77,1.52-39.63,2.2-59.36,3.98l-4.98,78.64c28.28-.55,56.15-8.36,84.31-9.94,15.08-.84,29.65,1.23,44.88-.02,34.99-2.87,74.68-7.52,109.63-12.06,31.72-4.12,61.1-12.95,91.29-22.89ZM373.15,93.58l-1.48-56.76-10.45,1.06.94,25.83-9.07-24.78-11.93.37,1.52,56.33c.41.72,9.95.43,10.37-1.69l-1.85-29.22,11.47,28.93,10.47-.06ZM368.2,169.27c9.67.21,15.86-8.59,12.17-17.7-3.28-8.11-15.46-4.72-22.18-4.23l1.99,33.84,7.87-1.1.15-10.81ZM330.98,149.56c-19.43,3.32-16.44,40.38,10.31,34.17,17.27-4.01,14.83-38.47-10.31-34.17ZM312.27,185.15l-2.45-32.89-8.52.05c-2.18,2.13,8.04,18.31-10.53,12.01l-.43-11.02h-8.99s2.05,33.8,2.05,33.8l8.49-.91-1.56-13.95c2.8.08,10.76-2.6,12.53-.07l1.39,13.58,8.02-.59ZM272.37,161.27c3.07-10.62-13.86-9.2-17.97-3.5-7.82,10.86,10.96,15.55,11.03,20.92-.87,6.15-12.14-.4-13.01.5-3.68,12.17,16.73,12.12,21.4,4.93,7.1-10.91-11.49-15.4-11.51-21.37-.01-4.47,9.68-1.08,10.05-1.49ZM242.1,159.62c-5.59-5.59-14.79-1.5-21.61-2.34l1.95,33.44,8.02-.59-.48-11.95c7.29,4.35,5.81,14.74,17.45,11.95,1.57-1.52-7.49-11.64-8.94-13.48l-.03-1.43c7.13-1.9,8.57-10.67,3.64-15.6ZM195.56,192.13h16.46c.27,0,2.33-1.02,2.53-1.68l-.03-6.29h-10.98s-.04-5.31-.04-5.31l10.02-1.65v-5.98s-9.34-.13-9.34-.13c-2.31-.76-1.6-3.95-1.64-5.83l9.56-.95-.69-5.91-17.86.88,2,32.86ZM398.08,158.29l-11.38,1.88-.59,4.08,11.02-1.45.95-4.51ZM164.62,194.13c7.48.08,23.57-.34,24.02-10.48.32-7.28-7.01-7.49-7.03-8.94,7.92-5.85,3.59-14.23-5.54-14.48-1.65-.05-12.93,1.61-13.29,2.18l1.85,31.72ZM147.17,163.26c-4.74-.84-11.46.61-16.46,0l2.57,32.87h7.41s-.99-11.96-.99-11.96c6.53,5.76,6.93,13.4,17.94,10.95l-8.93-12.52c-.43-1.84,4.48-3.18,5.49-6.33,1.78-5.55-1.13-11.95-7.03-13ZM126.71,197.1l-12.44-30.88-8.41-.86-10.08,32.74,8.04-.43,2.59-6.57h9.66s2.61,5.56,2.61,5.56l8.02.45ZM84.31,167.24c-4.3-.92-11.29.67-15.96,0l-1.34,1.65,1.85,31.19c7.51.17,24.55-.41,23.72-11.2-.52-6.77-6.44-6.74-6.78-8.22,3.9-3.51,4.38-12.16-1.49-13.42ZM60.87,182.18l-14.85,2.1-.12,3.87,14.85-2.1.13-3.86Z"/>
  <path class="cls-1" d="M340.1,104.41c-30.19,9.94-59.58,18.77-91.29,22.89-34.95,4.54-74.63,9.19-109.63,12.06-15.22,1.25-29.79-.82-44.88.02-28.16,1.58-56.03,9.38-84.31,9.94l4.98-78.64c19.73-1.78,39.6-2.46,59.36-3.98,10.76-.83,22.1-3.44,32.89-4.02,14.76-.79,27.77,1.38,41.95,2.02,18.37.83,35.96-5.49,54.01-7.81,17.36-2.23,35.14-1.82,52.46-4.4,26.59-3.95,52.18-14.2,79.14-16.4l5.32,68.32ZM331.24,43.79l-8.06,1.66,3.07,39.64c-1.81,5.7-9.05,6.73-9.91-.05l-1.06-38.26h-9.99c-.73,3.94.92,7.73,1.04,11.41.34,9.74-.87,25.64,2.22,34.62,4.04,11.71,22.78,9.18,25.24-1.16,1.33-15.97-1.76-31.94-2.56-47.86ZM272.69,56.06c-4.58,5.04-1.39,14.26-1.27,20.06.18,8.17-2.04,24.96,4.44,30.41,7.99,6.72,23.8,2.38,25.36-8.56.93-6.55-1.19-32.09-3.43-38.21-3.82-10.46-18.92-10.51-25.1-3.7ZM248.43,114.48v-20.91l8.45,18.94,10.52.46-9.01-20.94c3.41-3.81,5.21-5.24,5.89-11.01,2.69-22.97-7.95-21.75-26.83-19.31l2,52.77h8.98ZM231.48,79.64c-.45-13.45-3.83-18.94-18.02-16.48-8.05,1.39-11.24,4.83-11.96,12.96-.82,9.26-.18,24.57,1.03,33.9,2.27,17.51,27.31,12.86,28.99,1.04.48-3.38,1.03-10.56,1.03-14,0-2.93-1.07-5.56-1.08-8.45l-11.91,2.05-.95,7.34,4.84,1.61c3.1,12.5-10.59,18.38-11.97,3.48-.39-4.2-.48-26.61,1.11-28.83,1.43-2,3.93-2.04,6.2-1.36,3.36,1,4.28,6.24,4.85,6.61,1.29.82,5.9-.21,7.83.16ZM103.77,132.4c11.61-1.82,29.27,1,30.93-14.43.87-8.13,1.01-23.6.89-31.96-.15-10.31-3.37-16.28-14.35-16.4-2.43-.03-16.4,1.29-16.97,2.02.39,1.21-.5,2.79-.5,3.53v57.24ZM169.62,71.68v50.77l9.98-1v-18.42c0-.13-1.96-2.67.5-2.47s6.04,17.01,8.47,19.44l8.99-.56-7.7-19.42c7.5-4.97,8.54-27.02-.99-29.14-2.47-.55-18.28-.36-19.24.78ZM58.88,72.67l-11.89,1.09c-.55,5.54-1.83,11.8-2.12,17.29-.42,7.94,1.68,31.32-2.02,36.8-2,2.96-8.26,2.86-8.92-.91l2-53.27-10.92,1.05c-1.91,7.98-.55,16.22-1.06,24.33-.86,13.69-8.94,41.61,11.49,43.33,25.33,2.13,20.36-23.28,21.4-39.38.65-10.09,2.78-20.15,2.04-30.33ZM95.79,72.67h-8.98v20.91c-2.28.39-1.59-.1-2.23-1.27-1.62-2.97-6.2-17.24-7.73-18.16-1.77-1.07-9.5-1.15-10.99,1.01v54.25c3.01-.28,6.85,1.11,8.98-1.49v-28.37l11.94,26.45,1.64,1.21,7.38-.78v-53.76ZM142.68,74.66v49.28c.72.93,1.02,1.27,2.25,1.3,2.01.05,19.05-2.08,19.58-2.91l-.97-7.74-10.88.89.14-13.3,7.4-2.6.28-6.53c-1.65-2.75-5.04.34-7.82-.46l.14-10.32,1.49-1.49,7.35-.13v-7.97s-18.96,2-18.96,2Z"/>
  <path class="cls-1" d="M426.03,97.55l-46.89,8.97-5.04-85.1c10.78-2.22,22.32-7.09,32.95-9.08,1.09-.2,1.76-.72,2.51.59,8.72,27.5,11.91,56.25,16.48,84.62ZM386.12,91.59c10.18-2.66,24.27-2.66,27.53-14.92-2.15-12.72-.23-27.75-2.86-40.08-2.17-10.14-4.96-10.52-14.93-9.44-2.49.27-12.92,2.31-13.61,4.34l3.86,60.1Z"/>
  <path class="cls-1" d="M373.15,93.58l-10.47.06-11.47-28.93,1.85,29.22c-.42,2.12-9.96,2.41-10.37,1.69l-1.52-56.33,11.93-.37,9.07,24.78-.94-25.83,10.45-1.06,1.48,56.76Z"/>
  <path class="cls-1" d="M330.98,149.56c25.14-4.3,27.57,30.16,10.31,34.17-26.74,6.21-29.74-30.85-10.31-34.17ZM333.97,156.44c-9.83,1.79-7.08,21.34,2.61,20.48,10.73-.95,7.45-22.31-2.61-20.48Z"/>
  <path class="cls-1" d="M312.27,185.15l-8.02.59-1.39-13.58c-1.77-2.52-9.73.15-12.53.07l1.56,13.95-8.49.91-2.05-33.79h8.99s.43,11.02.43,11.02c18.57,6.3,8.36-9.88,10.53-12.01l8.52-.05,2.45,32.89Z"/>
  <path class="cls-1" d="M164.62,194.13l-1.85-31.72c.35-.57,11.64-2.23,13.29-2.18,9.14.26,13.46,8.64,5.54,14.48.02,1.45,7.36,1.66,7.03,8.94-.45,10.13-16.54,10.56-24.02,10.48ZM171.62,173.22c2.95.93,7.64-2.11,5.53-5.03l-5.53-.96v5.98ZM172.61,187.16c10.27.39,8.99-9.6-1-7.96l1,7.96Z"/>
  <path class="cls-1" d="M242.1,159.62c4.93,4.93,3.48,13.71-3.64,15.6l.03,1.43c1.44,1.84,10.51,11.96,8.94,13.48-11.63,2.79-10.15-7.6-17.45-11.95l.48,11.95-8.02.59-1.95-33.44c6.82.84,16.02-3.26,21.61,2.34ZM229.48,171.23c4.36.67,8.38-1.23,6.52-6l-6.51-1.97v7.97Z"/>
  <path class="cls-1" d="M84.31,167.24c5.88,1.26,5.39,9.91,1.49,13.42.34,1.48,6.26,1.45,6.78,8.22.82,10.78-16.21,11.36-23.72,11.2l-1.85-31.19,1.34-1.65c4.67.67,11.67-.92,15.96,0ZM80.71,178.09l-.83-4.43-5.04-.43,1,5.97,4.87-1.1ZM82.57,186.4c-1.4-1.38-4.83-1.25-6.73-1.24l.95,7.55c3.99,1.35,9.77-2.38,5.79-6.31Z"/>
  <path class="cls-1" d="M147.17,163.26c5.91,1.04,8.81,7.45,7.03,13-1.01,3.15-5.92,4.5-5.49,6.33l8.93,12.52c-11.01,2.46-11.41-5.19-17.94-10.95l.99,11.95h-7.41s-2.57-32.85-2.57-32.85c5,.61,11.73-.84,16.46,0ZM139.69,177.2c8.04.62,8.21-8.15,0-7.96v7.96Z"/>
  <polygon class="cls-1" points="126.71 197.1 118.7 196.65 116.08 191.09 106.42 191.09 103.83 197.67 95.79 198.09 105.87 165.36 114.27 166.22 126.71 197.1"/>
  <path class="cls-1" d="M368.2,169.27l-.15,10.81-7.87,1.1-1.99-33.84c6.72-.49,18.9-3.88,22.18,4.23,3.69,9.11-2.5,17.92-12.17,17.7ZM367.16,161.27c9.67,1.29,8.17-8.31,0-7.97v7.97Z"/>
  <path class="cls-1" d="M195.56,192.13l-2-32.86,17.86-.88.69,5.91-9.56.95c.04,1.89-.67,5.08,1.64,5.83l9.34.13v5.98s-10.02,1.65-10.02,1.65l.04,5.32h10.98s.03,6.28.03,6.28c-.2.66-2.26,1.68-2.53,1.68h-16.46Z"/>
  <path class="cls-1" d="M272.37,161.27c-.38.41-10.07-2.98-10.05,1.49.02,5.97,18.61,10.46,11.51,21.37-4.67,7.18-25.08,7.24-21.4-4.93.87-.91,12.14,5.64,13.01-.5-.07-5.37-18.85-10.07-11.03-20.92,4.11-5.7,21.04-7.12,17.97,3.5Z"/>
  <polygon class="cls-1" points="60.87 182.18 60.75 186.04 45.9 188.14 46.02 184.28 60.87 182.18"/>
  <polygon class="cls-1" points="398.08 158.29 397.13 162.8 386.11 164.25 386.7 160.17 398.08 158.29"/>
  <path d="M58.88,72.67c.74,10.18-1.39,20.24-2.04,30.33-1.04,16.1,3.93,41.51-21.4,39.38-20.43-1.72-12.35-29.63-11.49-43.33.51-8.11-.85-16.35,1.06-24.33l10.92-1.05-2,53.27c.66,3.77,6.93,3.86,8.92.91,3.7-5.48,1.61-28.85,2.02-36.8.29-5.49,1.57-11.75,2.12-17.29l11.89-1.09Z"/>
  <path d="M103.77,132.4v-57.24c0-.75.89-2.32.5-3.53.57-.73,14.54-2.04,16.97-2.02,10.98.11,14.2,6.08,14.35,16.4.12,8.36-.02,23.83-.89,31.96-1.66,15.44-19.33,12.61-30.93,14.43ZM114.74,82.13v38.33c3.81-.56,8.51-.89,9.03-5.42.58-5.04.67-27.29-.49-31.5-.99-3.59-7.79-3.82-8.54-1.41Z"/>
  <path d="M95.79,72.67v53.76l-7.38.78-1.64-1.21-11.94-26.45v28.37c-2.13,2.6-5.97,1.21-8.98,1.49v-54.25c1.5-2.16,9.22-2.08,10.99-1.01,1.53.92,6.11,15.19,7.73,18.16.64,1.17-.05,1.67,2.23,1.27v-20.91h8.98Z"/>
  <path d="M272.69,56.06c6.18-6.8,21.28-6.76,25.1,3.7,2.24,6.12,4.36,31.66,3.43,38.21-1.56,10.94-17.37,15.28-25.36,8.56-6.48-5.45-4.26-22.24-4.44-30.41-.12-5.8-3.31-15.02,1.27-20.06ZM290.34,97.06c1.05-3.18,0-22.66,0-27.87,0-7.96-8.73-11.07-9.78-2.98,2.56,8.15-1.17,22.59,1,29.67,1.2,3.91,7.88,3.93,8.79,1.19Z"/>
  <path d="M231.48,79.64c-1.93-.37-6.55.65-7.83-.16-.57-.36-1.5-5.6-4.85-6.61-2.27-.68-4.78-.63-6.2,1.36-1.59,2.23-1.5,24.63-1.11,28.83,1.38,14.9,15.07,9.01,11.97-3.48l-4.84-1.61.95-7.34,11.91-2.05c.02,2.89,1.08,5.52,1.08,8.45,0,3.44-.55,10.62-1.03,14-1.68,11.82-26.72,16.47-28.99-1.04-1.21-9.33-1.85-24.63-1.03-33.9.72-8.12,3.91-11.56,11.96-12.96,14.19-2.46,17.56,3.04,18.02,16.48Z"/>
  <path d="M248.43,114.48h-8.98s-2-52.76-2-52.76c18.88-2.44,29.52-3.66,26.83,19.31-.67,5.77-2.48,7.2-5.89,11.01l9.01,20.94-10.52-.46-8.45-18.94v20.91ZM254.17,84.36c3.46-3.24,2.66-14.04-2.62-15.17-1.35-.29-5.15.56-4.68,2.53l.58,13.91c1.99,0,5.21.16,6.73-1.26Z"/>
  <path d="M169.62,71.68c.96-1.14,16.77-1.33,19.24-.78,9.53,2.12,8.49,24.17.99,29.14l7.7,19.42-8.99.56c-2.43-2.43-5.89-19.24-8.47-19.44s-.5,2.34-.5,2.47v18.42l-9.98,1v-50.77ZM180.21,78.74c-2.46.67.69,9.62-1.21,12.39l3.85,2.31c5.71-.47,5.14-12.6,1.75-14.31l-4.39-.39Z"/>
  <path d="M331.24,43.79c.8,15.92,3.89,31.89,2.56,47.86-2.47,10.33-21.21,12.87-25.24,1.16-3.09-8.98-1.88-24.88-2.22-34.62-.13-3.68-1.78-7.47-1.04-11.41h9.99s1.06,38.26,1.06,38.26c.86,6.78,8.1,5.75,9.91.05l-3.07-39.64,8.06-1.66Z"/>
  <path d="M142.68,74.66l18.96-2v7.97s-7.35.13-7.35.13l-1.49,1.49-.14,10.32c2.78.8,6.17-2.29,7.82.46l-.28,6.53-7.4,2.6-.14,13.3,10.88-.89.97,7.74c-.53.84-17.57,2.97-19.58,2.91-1.23-.03-1.53-.37-2.25-1.3v-49.28Z"/>
  <path d="M386.12,91.59l-3.86-60.1c.68-2.03,11.11-4.07,13.61-4.34,9.97-1.08,12.76-.7,14.93,9.44,2.63,12.33.71,27.36,2.86,40.08-3.26,12.26-17.35,12.26-27.53,14.92ZM394.61,36.83c-1.94,1.19-.89,1.63-.86,2.75.3,9.71-.36,20.22.3,29.64.13,1.83,1.09,10.26,2.52,10.38,7.57-2.32,6.8-6.66,6.54-13.45-.32-8.3-2-17.26-2.22-25.65l-6.28-3.67Z"/>
  <path d="M333.97,156.44c10.06-1.83,13.34,19.54,2.61,20.48-9.69.85-12.44-18.7-2.61-20.48Z"/>
  <path d="M172.61,187.16l-1-7.96c9.98-1.63,11.27,8.35,1,7.96Z"/>
  <path d="M171.62,173.22v-5.98s5.53.96,5.53.96c2.11,2.92-2.58,5.96-5.53,5.03Z"/>
  <path d="M229.48,171.23v-7.97s6.52,1.97,6.52,1.97c1.86,4.77-2.15,6.67-6.52,6Z"/>
  <path d="M82.57,186.4c3.99,3.92-1.79,7.66-5.79,6.31l-.95-7.55c1.91,0,5.33-.13,6.73,1.24Z"/>
  <polygon points="80.71 178.09 75.84 179.19 74.84 173.22 79.88 173.66 80.71 178.09"/>
  <path d="M139.69,177.2v-7.96c8.21-.18,8.04,8.59,0,7.96Z"/>
  <path d="M367.16,161.27v-7.97c8.17-.34,9.67,9.26,0,7.97Z"/>
  <path class="cls-1" d="M114.74,82.13c.75-2.41,7.55-2.18,8.54,1.41,1.16,4.21,1.07,26.46.49,31.5-.52,4.53-5.23,4.86-9.03,5.42v-38.33Z"/>
  <path class="cls-1" d="M290.34,97.06c-.9,2.74-7.59,2.72-8.79-1.19-2.17-7.08,1.56-21.52-1-29.67,1.05-8.09,9.78-4.97,9.78,2.98,0,5.21,1.05,24.7,0,27.87Z"/>
  <path class="cls-1" d="M254.17,84.36c-1.52,1.42-4.74,1.27-6.73,1.26l-.58-13.91c-.47-1.97,3.33-2.81,4.68-2.53,5.29,1.13,6.08,11.93,2.62,15.17Z"/>
  <path class="cls-1" d="M180.21,78.74l4.39.39c3.39,1.71,3.96,13.84-1.75,14.31l-3.85-2.31c1.89-2.77-1.25-11.72,1.21-12.39Z"/>
  <path class="cls-1" d="M394.61,36.83l6.28,3.67c.22,8.39,1.89,17.36,2.22,25.65.27,6.8,1.04,11.14-6.54,13.45-1.43-.12-2.39-8.55-2.52-10.38-.66-9.43,0-19.93-.3-29.64-.03-1.12-1.09-1.56.86-2.75Z"/>
</svg>