<?xml version="1.0" encoding="UTF-8"?>
<svg id="Vrstva_1" data-name="Vrstva 1" xmlns="http://www.w3.org/2000/svg" viewBox="0 0 304 405">
  <defs>
    <style>
      .cls-1 {
        fill: #e61e56;
      }

      .cls-2 {
        fill: #e61c68;
      }

      .cls-3 {
        fill: #1d0d06;
      }

      .cls-4 {
        fill: #f8c415;
      }

      .cls-5 {
        fill: #110403;
      }

      .cls-6 {
        fill: #f2dd2b;
      }

      .cls-7 {
        fill: #fbc313;
      }

      .cls-8 {
        fill: #f6c722;
      }

      .cls-9 {
        fill: #e32457;
      }

      .cls-10 {
        fill: #e52c53;
      }

      .cls-11 {
        fill: #e51d5b;
      }

      .cls-12 {
        fill: #e51e57;
      }

      .cls-13 {
        fill: #e51e59;
      }
    </style>
  </defs>
  <path class="cls-7" d="M204,271l2.98-1.99c.25,3.06,4.84,2.59,7.53,4.98,4.37,3.88,6.15,12.03,10.49,16.01,1.05,5.64,1.73,12.73,3.48,18.02,1.41,4.25,3.41,6.06,4.52,10.98v19c-4.75,29.03-25.44,51.07-49,67h-3l5.51-16.98c-6.61,4.41-10.93,11.43-16.51,16.98h-5l16-58,3.99-8c1.36,3.58,4.38,7.79,6.97,10.54,3.6,3.83,11.43,11.04,15.54,14.46,1.13.94,1.62,2.42,3.5,1.99l-15.17-23.32c-1.79-5.31-5.36-11.05-4.33-16.67l11.49,8.99c-.52-7.4-6.04-15.07-6.07-22.5-.05-12.75,5.58-28.66,7.08-41.49Z"/>
  <path class="cls-13" d="M119,354c5.04,10.56,13.69,24.28,22.53,31.97,6.17,5.37,9.26,4.58,13.21,12.83.66,1.37-.63,2.75,2.25,2.19,2.65-18.95-8.06-31.67-21.98-42.49l33.98-27.5c.85.97-6.67,20.04-9.99,21.5,10.53-.23,4.17,2.42,4.25,6.83.06,3.71,3.48,2.42,3.74,2.68.76.74-1.85,6.43-1.5,7.97,7.56-7.54,9.57-18.83,14.51-27.98.53,1.2,2.88.31,1,5l-16,58h-22l-20.02-30.99c-2.77-.57-2.13,1.06-1.86,3.37.96,8.42,4.42,16.63,6.88,24.63-7.54-7.71-10.19-24.3-11-35,2.75-3.33-.75-9.67,2-13Z"/>
  <path class="cls-7" d="M128,402c-2.47-8-5.92-16.21-6.88-24.63-.26-2.31-.9-3.94,1.86-3.37l20.02,30.99h-14c-.01-1.1-.7-2.02-1-3Z"/>
  <path class="cls-10" d="M181,405h-11c5.58-5.55,9.9-12.57,16.51-16.98l-5.51,16.98Z"/>
  <path class="cls-5" d="M169,19c.46,4.98,1.19,9.97,1.01,14.99,1.77-.51,2.14-5.65,1.99-6.99l6.5-21.01c1.81,0-1,33.33-1.49,36.01,1.5-.25,1.92-1.84,2.49-3,4.25-8.82,6.72-20.75,10.52-29.99,1.78-.23.97,2.25.86,3.36-.28,2.84-3.68,17.66-2.87,18.63,2.13.41,2.33-.99,3.06-2.43,2.14-4.23,3.09-10.97,4.95-15.55,1.77-.03,1.1,4.4.98,5.48-.34,2.93-1.43,5.65-1.99,8.51-.68,3.47-1.55,6.89-2.1,10.41-.23,1.5-2.06,2.92.59,2.6,2.53-3.64,3.03-9.29,4.51-13.01.48-1.21,5.44-11.67,5.99-11,0,.99.05,2,0,3l-5,14.99c2.01,2.1,4.83-6.86,5-7.99,3.22-3.69,4.82-9.19,8.99-12-.11,4.68-6.71,15.54-5.99,19.48.28,1.53,2.3,1.69,3.01.02l7.99-13.5c-.89,4.8-2.47,9.38-3.99,13.99-.57,1.73-4.37,10.55-4,10.99,1.47,1.74,2.2-1.32,2.59-1.87,1.6-2.28,2.75-4.87,4.41-7.12,3.24-4.41,7.06-9.18,10.99-13,.73,2.55-6.22,10.83-4.99,11.99,2.29,2.17,6.63-6.23,8.5-6.99.76-.16.64.96.48,1.48-.77,2.44-10.19,16.29-8.98,17.51,1.8.38,2.41-.96,3.52-1.97,4.23-3.86,8.02-10.38,12.99-14-.78,4.22-4.06,9.26-6.51,12.98-.49.74-5.49,6.55-5,6.99,2.97.21,4.37-3.45,6-4.99,2.49-2.34,4.63-4.55,7-7,3.15-.31,1.81.58.81,2.31-1.09,1.87-3.41,2.89-2.8,5.69,2.46-1.81,5.44-4.37,6.99-7,3.35-.21,1.7.51.61,2.11-3.17,4.64-8.44,8.07-9.61,13.88,1.27,1.31,12.55-10.05,14.5-10.99-.11,7.82,9.88-3.61,10.49-3l-14.83,18.67c-2.2,5.46,6.21-1.31,7.17-1.83,2.05-1.12,4.32-2.55,6.66-2.82-.81,1.7-11.36,10.73-9.99,11.99,8.63-.96,15.33-7.87,23.99-8.98-4.52,4.98-11.17,7.95-16.01,12.48-1.52,1.42-4.04,3.22-3.98,5.51,1.06.95,13.79-4.57,16.49-5.01,1.15-.18,2.13-.17,1.02,1.02-.54.57-10.99,6.31-5.99,7,2.43.33,12.77-4.77,16.48-3.99-1.52,3.26-19.9,14.23-19.98,15.49s2.12,1.3,3.21,1.26c6.26-.24,14.1-4.18,20.77-3.74l-16.52,9.96c-.83,1.4-6.22,2.66-5.47,4.51.81,2.01,2.42,1.02,3.79.9,6.63-.57,13.56-3.35,20.2-1.89-7.13,4.39-15.98,5.78-21.97,12.01-.04,3,15.18-.34,17.49-.49,3.81-.24,7.68.14,11.49,0l-26.86,11.12c-1.25,5.58,3.22,1.87,5.36,1.87h17.5l-14.27,5.23-3.71,2.27c-.04,2.71,18.06,3.26,20.98,3.51-3.69,3.41-10.09,3.4-15,4.99-3.37-.13-6.97.39-10.2,1.31-1.03.29-3.03.23-2.8,1.68,5.77-.64,11.47.44,16.99,1.01,2.01.21,3.97-.08,6.21.28,1.05.17,3.99.26,3.79,1.71l-19.99,4c4.75,1.49,9.59.64,14.37,1.13,1.02.1,4.7.4,4.61,1.87-5.63,1.07-13.58,1.18-17.99,5,2.5-.78,25.04,3.23,25.01,4.51-10.43,1.64-21.7,2.65-31.01,8,2.97,1.38,24.95,5.82,24.97,8,.04,3.86-17.66-1.69-19.96,3l15.97,6.51-11.27,1.21c-10.04,4.01,7.2,4.6,9.28,8.77-1.27.18-2.81-.21-4,0h-17c.19,1.93,2.12,1.53,3,2,6.41,3.45,13.62,5.42,20,9.02,2.55,3.42-6.12.12-8-.02-5.87-.44-12.08.31-17.99.01l11.99,5.99c2.3,2.51,6.55,2.57,8,5.99-.76.25-19.23-5.38-15,0,.36.46,9.48,3.12,10,6l-20-2.98c1.7,2.2,4.82,3.58,7.01,5.48,3.34,2.9,7.02,6.68,9.97,10.02-1.94.2-11.59-5.97-11.95-2.02-.19,2.05,8.45,6.39,8.48,9.48l-14.51-6.97c-1.55,1.59,10.36,12.93,8.5,15.99-3.58-2.38-6.95-6.81-11.5-6.99-1.27,1.15,9.91,12.84,8.99,15.99-.55.67-11.69-10.01-14.99-7.99l9.99,15.5c.16.74-1.05.68-1.48.49-1.62-.74-9.18-7.2-11.51-8.99-.64-.49-4.48-4.62-4.99-4-.5,3.01,3.11,5.45,3.99,7,1.96,3.45,3.47,8.19,5.98,11.51-2.18-1.04-8.41-8.8-10.97-6.51-1.04.93,6.24,11.53,5.99,13.99-8.76-9.58-17.82-14.47-6.83,2.34,6.54,10,20.15,17.54,26.48,28.52l38.36,22.14v63h-120c23.56-15.93,44.25-37.97,49-67,1.18-7.2,1.62-11.77,0-19-1.1-4.92-3.1-6.73-4.52-10.98-1.76-5.29-2.43-12.37-3.48-18.02-.53-2.83-1.57-6.34-2-9,.1-4.99-.14-10.02,0-15s.65-10.04.5-15c-2.33,4.96-13.84,5.87-16.02,7.98-2.06,1.99-3.27,9.24-4.49,12.01-.69,1.57-2.75,7.24-5.01,5.49,2.8-9.98,2.38-20.5,4.31-30.69.93-4.93,1.9-12.61,5.7-15.79-.86,5.02,2.37,11.83,7.01,14,7.71,3.61,21.81-4.29,27.02-10.48,8.11-9.65,10.85-27.07,6.93-38.97-.48-1.45-3.65-6.94-4.72-7.53-1.55-.84-10.47-1.72-12.33-1.46-4.63.66-9.51,6.93-13.89,5.44,2.74.66,2.08-3.02,4-5,2.47-2.55,9.85-5.64,13.49-6,7.22-.73,9.56,1.05,15.51,4,.05.02.46,1.92,1,.5-.62-6.94,1.29-14.89-1-21.5.08-31.36-18.47-49.79-40.93-67.57-13.95-11.04-23.84-18.11-41.4-22.44-.8-.2-.65-2.01-1.24-2.02-2.07-.02-3.09.15-5.44.03-5.73-1.67-14.19-1.68-20,0-21.54,1.42-48.57,15.19-61.83,32.67-2.2,2.9-15.83,23.95-16.19,25.82-.31,1.59,0,1.66,1.45,1.46,1.64-.23,5.9-.65,6.84-.95,1.21-.39,1.04-2.08,1.71-2.53,2.5-1.71,4.31,2.39,6.01,3.53,3.53,2.37,3.72-1.4,6-5,1-1.58,3.58-7.95,5.99-5.99,1.55,1.25-1.76,2.22-2.17,3.34-.97,2.63-1.37,5.98-.82,8.65.34,1.66,2.19,5.74,2,5.98-.14.18-2.41.8-4,2.02-6.81,5.22-14.35,9.77-21,15-4.68,3.68-2.79,4.42-.85,9.35,2.77,7.06,7.15,13.47,13.86,17.15-7.81,1.4-10.8,6.33-13.01,13.5-.84,2.71-3.83,12.21.62,12.95.54.09,5.55-3.62,7.4-4.43,27.95-12.24,44.88,9.53,52.98,33.48,4.75,14.05,3.02,25.73-3.52,38.98-3.43,6.96-10.67,15.04-18.49,16.01l1.01-1.98h-2s-20,1.99-20,1.99c-4.08-.32-2.39-1.39-3.75-1.93-3.45-1.39-5.43,1.01-7.25-5.07,1.93-2.68,2.75-7.63,3-11,.37-5.03.58-14.15,0-19-.26-2.2-3.4-11.09-4.48-13.02-2.22-3.95-1.63,5.36-4.52,4.02-2.12-8.65-5.46-16.68-7-26v-21c1.09-6.22,3.02-12.6,4.79-18.68-1.38-1.29-3.48-7.99-3.8-8.32-1.47-1.5-1.74.49-2.24,1.28-1.57,2.49-5.39,12.87-5.75,15.72-.58,4.68-.4,14.14,0,19,1.36,16.75,9.02,32.47,11,49,1.46,12.15,1.16,24.68,2.01,36.99,2.58.62,2.34-1.25,1.99-2.99-.16-.8-.99-.93-1-1-.18-2.59-.03-5.39,0-8l2-1c.09.64-.09,1.36,0,2,.25,1.73.97,2.83,1,3,.12.62-.12,1.39,0,2,.36,1.78.44,2.24,1,4,1.86,5.83,2.75,9.79,8.77,12.73,8.32,4.06,14.97,1.73,23.23,1.27.18-.01.62.01,1,0,1.99-.06,4.01.04,6,0-.03.66.05,1.34,0,2-.42,5.74-9.64,7.19-14,8-.61.11-1.36-.09-2,0l-2,1c-3.61.29-7.37-.2-11,0-2.64-1.23-5.16-3.71-7-6-.77-.96-1.72-1.69-2-3,.09-1.52-1.41-6.2-2-8-.32-.98-1.03-4-1.5-4.01-3.62,4.72.14,3.59.5,4.01.08.09-.79,1.28-.62,2.3l2.62,16.7c.26,7.46.42,11.11,5,17,.38.48-.02,1.61,1.58,2.88s9.38,3.87,11.42,4.12c3.66.45,11.26.37,15,0,15.3-1.52,23.88-10.34,32.5-22,1.5,3.54-1.87,7.5-3.5,10.5-.21.66.89.73,1.48.48,4.74-2.01,15.61-9.37,20.43-12.58,9.57-6.38,18.85-13.93,27.6-21.4l1,5,5.48-5.01c2.11,11.34-3.86,21.61-5.99,33-1.68,1.84-1.6,4.69-2,7-.06.32.05.67,0,1-.02.11-.98.42-1,2,0,.33-.08.81,0,1-4.94,9.15-6.95,20.44-14.51,27.98-.35-1.54,2.26-7.24,1.5-7.97-.26-.25-3.67,1.04-3.74-2.68-.08-4.41,6.29-7.05-4.25-6.83,3.32-1.46,10.84-20.53,9.99-21.5l-33.98,27.5c13.92,10.83,24.62,23.54,21.98,42.49-2.88.56-1.6-.82-2.25-2.19-3.95-8.26-7.04-7.47-13.21-12.83-8.84-7.69-17.49-21.41-22.53-31.97-.55-1.14-.2-4.04-1.99-3.99.29,5.58-.43,11.45-.01,16.99.81,10.7,3.46,27.29,11,35,.3.98.99,1.9,1,3H9c12.12-28.82,46.19-39.29,67.99-59.51l-6.43-6.55c-6.78-9.48-4.28-18.19-5.69-28.31-.85-6.11-3.31-12.52-3.88-18.62-.42-4.51.41-9.49,0-14-2.78-30.66-17.37-61.49-11.7-91.2,1.2-6.28,6.61-16.56,6.75-21.33.13-4.46-3.39-11.15-3.94-16.07-2.13-18.99,4.71-19.88,13.71-33.08s13.27-24.16,26.27-33.73c9.17-6.75,15.99-5.42,15.98-19.09,0-14.48-6.31-29.73-10.05-43.5,5.44,5.76,7.09,14.71,11.99,21l3.99,9c.18-4.89-1.7-9.42-2.99-14-1.6-5.69-4.01-11.15-4.99-17,3.06,4,6.99,10.5,8.99,15,.8,1.79.8,6.82,2.99,7.99.5-3.79-.47-7.33-.99-10.99-.44-3.07-1.58-6.54-1.88-9.63-.11-1.11-.92-3.59.86-3.36.72,4.81,3.63,9.61,5.01,13.99.28.89.02,2.55.46,3.99.48,1.59,1.06,5.42,2.53,6,.26-4.37-.54-8.68-.99-12.99-.48-4.61-1.59-9.36-1.49-14.01,5.08,2.45,4.38,10.34,8.49,14.01-.01.66.64,5.17,1.99,4.99,0-5.65.04-11.34.01-16.99-.01-1.92.34-3.85-.98-5.52-.14-.85,1.89-.55,1.97-.48,1.65,1.62,3.03,16.13,5.01,19-.14,1.88-1.07,7.03,1.99,5.99V10c.17-.5-.11-1.36.02-1.99h.98c-.2,3.21,1.15,6.03,2.01,8.99l3.01,17.99.99-8.99c1.74-5.29,2.05-11.48,2.01-16.99,1.6,0,1.6,3.42,1.83,4.65,1.31,6.95,1.36,14.31,2.17,21.34l2.74-8.75,2.27-17.24,2.23,16.25,1.75,4.26c1.68.81,1.9-1.84,2.17-2.85.48-1.78,1.83-8.79,1.83-10.17V2c1.33-.26,1.6,1.83,1.75,2.74.77,4.67.82,9.56,1.25,14.26ZM66.25,139.68c-.59-.3.33-2.11-1.24-1.67.5,3.8-2.51.87-4.07,1.49-3.07,1.24-3.01,13.06.56,14.49,1.1-3.15,11.87-7.85,12.21-10.48.46-3.52-5.37-2.78-7.46-3.84ZM94.48,208.52c-5.4-6.13-6.86.14-9.97.14-1.63,0-3.29-2.5-6.78-1.49-2.41.7-2.76,3.4-4.01,4.55-2.05,1.88-6.31,1.4-4.63,7.67.98,3.65,5.32-1.78,5.89-1.37.08.06-.27,1.73.67,1.99,5.51,1.55,7.93-2.7,8.84-2.75,1.6-.1,5.11,2.04,9.84.73,1.13-.31.32-2.33,1.17-1.98,1.62.66,2.07,4.11,4.45,4.62,2.06.44,3.41-.62,4.61-.5,3.09.32,6.68,4.55,10.44-1.11-2.1.59-2.91-4.31-4.24-4.75-1.99-.66-3.62.69-4.81.2-1.27-.52-1.85-3.05-4.49-3.49-2.4-.4-5.27,1.24-5.44,1.02-.14-.18.3-1.41-1.53-3.49ZM123,259.01c-12.05-2.6-18.58,7.34-24.51,15.99-2.61.36-.88-1.06-.47-2.47.94-3.18,1.91-6.39,2.98-9.51-10.51.56-19.05,14.07-15.85,23.85,19.41,2.05,34.79-8.27,37.85-27.85Z"/>
  <path class="cls-7" d="M142,71c6.06-.4,13.9-.31,20,0,2.35.12,3.36-.04,5.44-.03.59,0,.44,1.82,1.24,2.02,17.57,4.32,27.46,11.39,41.4,22.44,22.46,17.79,41,36.21,40.93,67.57,0,2.33.02,4.67-.01,7-1.66.39-.61-1.9-1.99-3-.42-2.02-1.37-4.87-2-7-6.08-20.69-22.7-41.59-38.99-55.51-1.3-1.11-8.91-7.55-10.01-6.48.61,3.42,4.14,6.35,4.79,9.74,1.98,10.3-4.57,6.52-11.17,7.38l-9.62,2.87c1.61.9,8.62.75,8.99,1.02,2.35,1.71-2.6,1.81-1.99,2.98,1.75.36,9.64,2.34,10.01,3.51,1.48,4.62-4.05.87-5.01,3.49,5.25,1.1,10.17,3.74,13.98,7.53l-4.99,1.98c2.12,2.78,8.07,6.8,8.98,10.02s-4.16.09-3.98,2.47c2.58.41,9.28,6.47,7.85,8.89-.24.4-2.62.67-2.86,1.64-.35,1.36,2.64,3.29,2.82,5.14.15,1.56-2.86,5.27-1.81,6.34.38.38,4.8-1.2,2.66,2.73-.09.17-1.45.18-1.63.94-1.29,5.44,1.95,5.59,2.02,5.96.58,3.42-4.49,6.51.96,8.37,4.39,1.5,9.26-4.78,13.89-5.44,1.86-.26,10.78.61,12.33,1.46,1.07.59,4.24,6.08,4.72,7.53,3.92,11.9,1.19,29.32-6.93,38.97-5.21,6.19-19.31,14.09-27.02,10.48l5.98-11.51c-16.96,6.15-9.68-18.2-8.99-27.01.09-1.1.74-3.73-.98-3.47-3.45,8.97-8.03,17.48-10.73,26.78-5.69,19.59-2.28,40-20.29,53.21-1.44,1.06-3.06,1.9-4.52,2.96l-1.48-1.96c.62-2.72,3.77-23.98,5-24,.06,0-.21.65.5,1,.78.38.5-11.81.5-13.5,0-.76.43-5.19-1-2.49-.12-1.37-2.03-4.48-1.01-7-3.32.88-3.27,10-6.43,5.94-1.71-2.19-2.99-14.93-4.05-18.95-3-11.36-8.06-21.29-16.02-29.98-.47,10.97,4.3,21.91,3.51,32.99-.06.85-3.07,3.5,1,3,.03.66,0,1.33,0,2-1.66,1.04-1,3.79-1.02,5.49-.09,8.33-.1,16.7,0,25.03.02,1.69-.64,4.45,1.02,5.49-.03.66.06,1.35,0,2-.97.27-.94,1.15-1,2-.38,5.75-2.42,22.64-5.48,27.02-2.3,3.3-3.84-7.07-3.53-8.02-1.28-1.6-3.15,8.87-3.53,9.95-7.09,20.19-19.92,38.81-43.85,35.94-3.31-.4-7.65-2.78-10.21-2.87-3.07-.11-8.11,3.57-12.4,1.97-4.58-5.89-4.74-9.54-5-17-.15-4.31.8-7.68,1-11,.28,1.31,1.23,2.04,2,3,.06,4.38-.51,8.8,1.01,12.99,1.47.04,1.22-1.83,2.6-2.86,4.72-3.5,16.09-2.18,22.39-2.13,3.47.02,11.32,1.38,13.3,1.01.42-.08,5.64-5.38,6.14-6.08,2.56-3.6,3.6-8.67,4.56-12.93-1.2.84-8.81,4.97-8.97,1.51-.07-1.52,11.8-13.84,9.97-18.51-8.36,8.52-14.81,16.5-27.62,17.87-11.23,1.21-20.68-.42-26.37-10.87l-1-3c-.12-.61.12-1.38,0-2l-1-3c-.09-.64.09-1.36,0-2-.18-1.24.25-2.87,0-4,1.29-4.35-2.8-2.34-3.07-3.55-1.04-4.7,2.24-12.52-1.93-16.45-1.98-16.53-9.64-32.25-11-49,1.68-5.45,1.67-13.63,0-19,.36-2.85,4.18-13.23,5.75-15.72.5-.79.77-2.77,2.24-1.28.32.33,2.42,7.03,3.8,8.32-1.77,6.08-3.69,12.46-4.79,18.68-1.39,7.92-1.32,13.01,0,21,1.54,9.32,4.88,17.35,7,26,1.24,5.06,3.01,10.63,3.88,15.62,1.24,7.19.22,17,2.12,23.38s3.8,3.68,7.25,5.07c1.36.55-.33,1.62,3.75,1.93,6.06.47,14.56.74,20-2h2s-1.01,1.99-1.01,1.99c7.82-.97,15.06-9.05,18.49-16.01,6.53-13.25,8.27-24.93,3.52-38.98-2.62-13.5-12.35-38.18-27.74-40.76-10.92-1.83-24.75.48-33.25,7.76-.55-.73,1.38-7.84,1.99-9,.71-1.35,6.05-5.88,7.54-6.05,3.91-.46,2.45,5.08,7.45,2.55,3.54-1.79.32-5.37,1.05-6.42.47-.68,11.98-5.41,13.95-4.08,1.68.45,12.62-3.42,13-4,1.71.64,2.09,2.24,2.85,3.64,10.71,19.71,17.51,42.47,22.16,64.36.26.33,1.99-1.27,1.99-1.5v-22c0-14.78-16.48-52.19-26.98-63.02-1.74-1.79-3.16-3.96-6.02-3.47,1.03,1.68,1.52,3.09,2,4.99.54,2.12,1,3.73,1,6-9.35,4.79-19.2-8.61-26.75-9.83-3.94-.64-12.11,3.58-15.25-1.17,6.65-5.23,14.19-9.78,21-15,4.42-.41,8.63-1.03,13,0,1.74.41,5.1,2.19,7,3,2.56,3.05,6.12,9.09,9.62,10.88,2.88,1.47,5.55.78,8.18,1.79,1.12.43,1.18,1.95,1.39,2.05,3.19,1.56,13.08.38,16.24,3.38l7.56-2.09c-4.33-1.5-10.49-2.84-14.35-5.16-1.49-.89-3.3-1.94-1.65-3.86,9.49-.08,21.52,3.12,31.04,5.45,1.36.33,5.94,5.04,3.96-.45.2-.07.83-2.49,3.5-2.04.46.08.47,2.05,1.07,2.08.34.02,4.74-.79,4.43-2.03-2.43-1.8-16.99-3.56-16.97-5.51,3.15-3.19,8.79-3.33,10.98-7.49l-16,4.99c-1.62-.89-8.91-3.18-10.94-3.55-5.6-1.03-18.11.12-5.31-5.2,5.02-2.09,17.58-5.49,22.58-4.23.78.2.65,1.99,1.28,2.05,1.36.13,2.89-1.18,3.83-1.13.26.01,2.05,4.87,3.55.56.27-.78-2-.6-2.59-1.47-.73-1.07.75-2.9.61-3.03-.35-.29-4.19.49-5.01-1.51l1.99-1.49c-3.77,1.51-4.77-2.8-5.7-3.03-2.44-.61-5.39.37-8.52-1.05-.89-.41-1.73-2.93-3.78-2.93-2.34-2.81,3.2-3.57,3.99-5.51-5.49-2.04-12.42,3.56-17.55,3.6-2.43.02-.62-2.33-2.43-2.08.22,1.51-2.49,2.97-4.02,3.99-1.02.68-1.97,1.29-3,2s-1.97,1.28-3,2c-2.52,1.76-5.66,5.55-7.51.49-.47-1.27,1.46-7.57-.97-6.49-1.93.86-3.7,4.99-4.51,6.99-.27.67-.82,1.36-1,2-3.72-.15-2.58,4.97-6,6-1.26-.85-2.43-1.46-3-3,.18-.22-.54-5.69-2.49-4.99-2.33,1.96-2.36,6.19-3.52,8.35-.79,1.47-2.89-.38-3.99-.36-.55-2.68-.15-6.03.82-8.65.41-1.12,3.72-2.09,2.17-3.34-2.42-1.95-4.99,4.41-5.99,5.99l-1.32-.02c-1.09,3.28-5.23,2.17-4.68,5.02-1.7-1.15-3.51-5.24-6.01-3.53-.67.46-.5,2.15-1.71,2.53-.94.3-5.2.73-6.84.95-1.46.2-1.75.13-1.45-1.46.36-1.87,13.99-22.92,16.19-25.82,13.26-17.48,40.29-31.25,61.83-32.67ZM229,233c.32-.01,1.17.89,1.7.74,3.53-.98,8.43-5.85,10.71-8.83,15.96-20.78-1.35-48.89-17.25-24.25-.84,1.3-3.84,6.96-4,8.08-.38,2.53,3.31,6.65,1.72,9.14-1.32,2.06-11.93-1.55-6.85,10.1l13.97-2.98c-.04.08.76.64.33,1.72-.61,1.55-3.04,6.26-2.32,7.28.94.36,1.82-.99,1.99-1ZM140,263c-.44-2-1.04-6.15-2.99-7-.45,14.74-2.07,29.74-6.01,43.99,2.58.38,3.32-2.52,4.18-4.31,2.18-4.47,3.96-11.77,4.81-16.69,1.14-6.53,1.49-9.26,0-16Z"/>
  <path class="cls-12" d="M155,227c.8-11.08-3.97-22.02-3.51-32.99,7.95,8.69,13.01,18.62,16.02,29.98,1.06,4.02,2.33,16.76,4.05,18.95,3.17,4.06,3.12-5.07,6.43-5.94-1.02,2.52.89,5.63,1.01,7,.44,4.8-.31,10.12,0,15-1.23.02-4.38,21.28-5,24-.27,1.19-3.03,6.75-.51,5.99l6.51-6.99c18-13.22,14.6-33.62,20.29-53.21,2.7-9.29,7.28-17.8,10.73-26.78,1.71-.25,1.06,2.37.98,3.47-.69,8.8-7.97,33.16,8.99,27.01l-5.98,11.51c-4.64-2.17-7.87-8.98-7.01-14-3.8,3.18-4.77,10.86-5.7,15.79-1.92,10.19-1.51,20.71-4.31,30.69,2.27,1.76,4.33-3.92,5.01-5.49h1c-1.49,12.83-7.12,28.75-7.08,41.49.03,7.44,5.55,15.11,6.07,22.5l-11.49-8.99c-1.03,5.62,2.54,11.36,4.33,16.67l15.17,23.32c-1.88.43-2.37-1.06-3.5-1.99-4.11-3.42-11.94-10.62-15.54-14.46-2.59-2.76-5.61-6.97-6.97-10.54l-3.99,8c1.88-4.69-.47-3.8-1-5-.08-.19,0-.67,0-1l1-2c.05-.33-.06-.68,0-1,2.18-1.82,1.57-4.72,2-7,2.13-11.39,8.1-21.65,5.99-33l-5.48,5.01-1-5c-8.75,7.47-18.03,15.02-27.6,21.4-4.81,3.21-15.69,10.57-20.43,12.58-.59.25-1.69.18-1.48-.48,1.63-3,5-6.96,3.5-10.5-8.62,11.65-17.2,20.48-32.5,22-3.7-1.67-11.09-1.69-15,0-2.03-.25-9.87-2.9-11.42-4.12s-1.21-2.4-1.58-2.88c4.29,1.59,9.33-2.08,12.4-1.97,2.56.09,6.9,2.47,10.21,2.87,23.93,2.87,36.76-15.75,43.85-35.94.38-1.08,2.26-11.56,3.53-9.95-.31.96,1.23,11.32,3.53,8.02,3.06-4.38,5.1-21.27,5.48-27.02.98-.29.92-1.15,1-2,.06-.65-.03-1.34,0-2,.1-2.56,1-6.2,1-7.5v-18c0-2.38-.95-6.95-1-10.5,0-.67.03-1.34,0-2-.05-1.1.31-2.51-1-3Z"/>
  <path class="cls-1" d="M218,191c-5.45-1.86-.38-4.95-.96-8.37-.06-.37-3.3-.51-2.02-5.96.18-.76,1.54-.78,1.63-.94,2.15-3.93-2.28-2.35-2.66-2.73-1.06-1.06,1.95-4.78,1.81-6.34-.17-1.85-3.16-3.78-2.82-5.14.25-.97,2.63-1.25,2.86-1.64,1.44-2.42-5.27-8.47-7.85-8.89-.19-2.37,4.84.59,3.98-2.47-.91-3.22-6.86-7.25-8.98-10.02l4.99-1.98c-3.81-3.79-8.73-6.43-13.98-7.53.97-2.62,6.49,1.13,5.01-3.49-.37-1.17-8.27-3.15-10.01-3.51-.61-1.17,4.33-1.27,1.99-2.98-.37-.27-7.38-.12-8.99-1.02l9.62-2.87c6.61-.86,13.15,2.91,11.17-7.38-.65-3.38-4.18-6.32-4.79-9.74,1.09-1.07,8.71,5.37,10.01,6.48,16.28,13.92,32.9,34.82,38.99,55.51-2.91.5-7.09-1.79-8.27-4.25-2.55-5.32-1.37-2.81-4.31-6.65-1.45-1.9-2.88-8.14-6.48-5.66-1.14.79-2.07,5.54-2.05,7.09.05,3.08,2.1,4.68,2.1,5.97,0,.84-1.71,11.27-2.04,13.95-.23,1.92-2.04,3.67-2.01,5.02,0,.3,3.4.48,2.11,4.93-.27.95-10.09,1.94-4.06,5.6-1.92,1.98-1.26,5.66-4,5Z"/>
  <path class="cls-13" d="M222,186c-6.03-3.65,3.79-4.65,4.06-5.6,1.28-4.45-2.11-4.63-2.11-4.93-.03-1.35,1.77-3.1,2.01-5.02.33-2.68,2.04-13.11,2.04-13.95,0-1.29-2.05-2.89-2.1-5.97-.03-1.55.9-6.3,2.05-7.09,3.6-2.48,5.04,3.76,6.48,5.66,2.93,3.84,1.75,1.33,4.31,6.65,1.18,2.46,5.35,4.75,8.27,4.25.63,2.13,1.58,4.98,2,7,1.13,5.49,1.84,11.38,2,17-5.95-2.95-8.29-4.73-15.51-4-3.64.37-11.02,3.45-13.49,6Z"/>
  <path class="cls-13" d="M108,166c0,1.64-.08,4.62-1.23,5.77-.49.49-5.65,2.28-6.19,2.15-1.24-.28-1.86-3.63-3-5-3.97-4.74-15.77-5.25-21.58-4.93-.17,2.55-.3,4.12,1.45,6.05,1.13,1.24,14.69,7.08,17.62,8.43,1.46.67,3.54-.22,2.93,2.52-1.98-1.34-13.48,3.4-13.95,4.08-.73,1.05,2.48,4.63-1.05,6.42-5,2.53-3.54-3-7.45-2.55-1.49.17-6.83,4.7-7.54,6.05h-2c2.21-7.17,5.2-12.1,13.01-13.5-6.71-3.67-11.1-10.09-13.86-17.15-1.93-4.94-3.82-5.68.85-9.35,3.14,4.75,11.31.53,15.25,1.17,7.55,1.23,17.4,14.62,26.75,9.83Z"/>
  <path class="cls-11" d="M123,259.01c-3.05,19.59-18.43,29.9-37.85,27.85-3.2-9.78,5.34-23.3,15.85-23.85-1.07,3.13-2.04,6.34-2.98,9.51-.42,1.41-2.15,2.83.47,2.47,5.93-8.64,12.46-18.58,24.51-15.99Z"/>
  <path class="cls-9" d="M71,291c5.69,10.46,15.15,12.08,26.37,10.87,12.8-1.38,19.26-9.36,27.62-17.87,1.83,4.67-10.04,16.99-9.97,18.51.16,3.47,7.77-.67,8.97-1.51-.96,4.26-2,9.33-4.56,12.93-.5.7-5.71,6-6.14,6.08-1.97.37-9.83-.99-13.3-1.01-.69-1.5-2.68-.97-4-1v-2c4.36-.81,13.58-2.26,14-8l1-.5-1-1.5c-1.99.04-4.01-.06-6,0h-1c-8.25.46-14.9,2.78-23.23-1.27-6.02-2.94-6.91-6.9-8.77-12.73v-1Z"/>
  <path class="cls-4" d="M94.48,208.52c1.83,2.08,1.39,3.31,1.53,3.49.17.22,3.03-1.43,5.44-1.02,2.64.44,3.23,2.97,4.49,3.49,1.19.48,2.82-.87,4.81-.2,1.33.44,2.13,5.34,4.24,4.75-3.76,5.66-7.35,1.43-10.44,1.11-1.2-.12-2.55.94-4.61.5-2.38-.51-2.83-3.95-4.45-4.62-.85-.35-.03,1.67-1.17,1.98-4.73,1.31-8.24-.83-9.84-.73-.91.06-3.33,4.3-8.84,2.75-.94-.26-.59-1.93-.67-1.99-.57-.42-4.91,5.01-5.89,1.37-1.69-6.27,2.58-5.79,4.63-7.67,1.25-1.15,1.6-3.85,4.01-4.55,3.5-1.01,5.15,1.49,6.78,1.49,3.11,0,4.57-6.27,9.97-.14Z"/>
  <path class="cls-13" d="M223,266c-1.51,2.5-1.39,8.46-1.07,11.6.2,1.93.99,2.94,1.07,3.4.43,2.66,1.47,6.17,2,9-4.34-3.98-6.12-12.13-10.49-16.01-2.69-2.39-7.28-1.92-7.53-4.98l-2.98,1.99h-1c1.22-2.78,2.43-10.02,4.49-12.01,2.18-2.11,13.69-3.03,16.02-7.98.15,4.96-.37,9.98-.5,15Z"/>
  <path class="cls-9" d="M68,195c-.61,1.16-2.54,8.27-1.99,9,8.5-7.29,22.33-9.59,33.25-7.76,15.39,2.58,25.12,27.26,27.74,40.76-8.1-23.95-25.03-45.72-52.98-33.48-1.84.81-6.86,4.52-7.4,4.43-4.45-.73-1.46-10.23-.62-12.95h2Z"/>
  <path class="cls-9" d="M76,255c-1.68,5.45-1.67,13.63,0,19-.25,3.37-1.07,8.32-3,11-1.91-6.37-.88-16.19-2.12-23.38-.86-4.99-2.64-10.56-3.88-15.62,2.89,1.35,2.3-7.97,4.52-4.02,1.08,1.93,4.22,10.82,4.48,13.02Z"/>
  <path class="cls-4" d="M66.25,139.68c2.09,1.07,7.92.32,7.46,3.84-.34,2.63-11.11,7.33-12.21,10.48-3.57-1.44-3.63-13.26-.56-14.49,1.56-.63,4.57,2.31,4.07-1.49,1.57-.44.65,1.37,1.24,1.67Z"/>
  <path class="cls-9" d="M89,132c1.1-.02,3.21,1.83,3.99.36,1.16-2.16,1.19-6.39,3.52-8.35,1.95-.7,2.66,4.78,2.49,4.99s-2.46-.7-1.96,1.42c1.05,4.53,10.85,6.59,2.96,9.58-4.37-1.03-8.58-.41-13,0,1.59-1.22,3.86-1.84,4-2.02.19-.25-1.66-4.33-2-5.98Z"/>
  <path class="cls-10" d="M81,317c4.06,1.9,10.24.9,15,1,1.32.03,3.31-.5,4,1-6.29-.04-17.67-1.37-22.39,2.13-1.38,1.03-1.13,2.9-2.6,2.86-1.52-4.19-.95-8.62-1.01-12.99,1.84,2.29,4.36,4.77,7,6Z"/>
  <path class="cls-6" d="M64,257c4.17,3.93.89,11.76,1.93,16.45.27,1.2,4.36-.8,3.07,3.55-.14-.64-1.67-2.72-1.99-2-.04,2.33.02,4.67-.01,7-.03,2.61-.18,5.41,0,8l1,1c.34,1.75.58,3.62-1.99,2.99-.85-12.31-.55-24.84-2.01-36.99Z"/>
  <path class="cls-6" d="M251,163c2.29,6.6.39,14.55,1,21.5-.54,1.42-.95-.47-1-.5-.16-5.62-.87-11.51-2-17,1.38,1.09.33,3.38,1.99,3,.03-2.33,0-4.67.01-7Z"/>
  <path class="cls-6" d="M72,308c-.2,3.32-1.15,6.69-1,11l-2.62-16.7c-.17-1.02.7-2.21.62-2.3h1c.59,1.8,2.09,6.48,2,8Z"/>
  <path class="cls-6" d="M60,220c-1.32-7.99-1.39-13.08,0-21v21Z"/>
  <path class="cls-8" d="M104,290c-5.44,2.74-13.94,2.47-20,2l20-2Z"/>
  <path class="cls-6" d="M162,71c-6.1-.31-13.94-.4-20,0,5.81-1.68,14.27-1.67,20,0Z"/>
  <path class="cls-6" d="M233,338v-19c1.62,7.23,1.18,11.8,0,19Z"/>
  <path class="cls-2" d="M119,354c-2.75,3.33.75,9.67-2,13-.42-5.54.3-11.41.01-16.99,1.79-.05,1.44,2.85,1.99,3.99Z"/>
  <path class="cls-2" d="M76,274c-1.67-5.37-1.68-13.55,0-19,.58,4.85.37,13.97,0,19Z"/>
  <path class="cls-6" d="M53,208c-.4-4.86-.58-14.32,0-19,1.67,5.37,1.68,13.55,0,19Z"/>
  <path class="cls-2" d="M96,316v2c-4.76-.1-10.94.9-15-1,3.63-.2,7.39.29,11,0,.96-.08,1.74-.96,2-1,.64-.09,1.39.11,2,0Z"/>
  <path class="cls-2" d="M223,281c-.07-.45-.87-1.46-1.07-3.4-.33-3.14-.44-9.11,1.07-11.6-.14,4.98.1,10.01,0,15Z"/>
  <path class="cls-2" d="M104,343c-3.74.37-11.34.45-15,0,3.91-1.69,11.3-1.67,15,0Z"/>
  <path class="cls-8" d="M86,126c-2.28,3.6-2.47,7.37-6,5-.55-2.84,3.59-1.74,4.68-5.02l1.32.02Z"/>
  <path class="cls-3" d="M69,277c.25,1.13-.18,2.76,0,4l-2,1c.03-2.33-.03-4.67.01-7,.32-.72,1.85,1.35,1.99,2Z"/>
  <path class="cls-3" d="M70,300h-1c-.36-.42-4.12.71-.5-4.01.47.01,1.18,3.03,1.5,4.01Z"/>
  <path class="cls-13" d="M181,338c.4-2.31.32-5.16,2-7-.43,2.28.18,5.18-2,7Z"/>
  <path class="cls-3" d="M71,291v1c-.56-1.76-.64-2.22-1-4l1,3Z"/>
  <path class="cls-3" d="M70,286c-.03-.17-.75-1.27-1-3l1,3Z"/>
  <path class="cls-3" d="M94,316c-.26.04-1.04.92-2,1l2-1Z"/>
  <path class="cls-13" d="M180,341c.02-1.58.98-1.89,1-2l-1,2Z"/>
  <path class="cls-3" d="M110,308c.05-.66-.03-1.34,0-2l1,1.5-1,.5Z"/>
  <path class="cls-3" d="M68,291l-1-1c0,.07.84.2,1,1Z"/>
  <path class="cls-3" d="M103,306h1c-.38.01-.82-.01-1,0Z"/>
  <path class="cls-3" d="M148,119c2.05,0,2.89,2.52,3.78,2.93,3.13,1.42,6.07.44,8.52,1.05.93.23,1.93,4.53,5.7,3.03l-1.99,1.49c.82,2,4.66,1.22,5.01,1.51.15.12-1.34,1.95-.61,3.03.59.87,2.86.68,2.59,1.47-1.5,4.31-3.29-.55-3.55-.56-.95-.05-2.48,1.26-3.83,1.13-.63-.06-.5-1.86-1.28-2.05-5-1.26-17.56,2.14-22.58,4.23-12.8,5.32-.29,4.17,5.31,5.2,2.04.37,9.33,2.66,10.94,3.55,2.68,1.48,3.62,5.16,3.99,5.45.7.54,8.53,4.72,9.01,4.55,1.98,5.5-2.6.79-3.96.45-9.53-2.34-21.55-5.53-31.04-5.45-2.33.02-4.67-.02-7,0l8.99,6.49c-11.01-.17-18.66-9.13-29-13.5-1.9-.81-5.26-2.59-7-3,7.89-2.99-1.91-5.05-2.96-9.58-.5-2.13,1.79-1.21,1.96-1.42.57,1.54,1.74,2.15,3,3,1.57,1.06,2.43,2.58,5,2,.04-2.55.31-5.57,1-8,.18-.64.73-1.33,1-2l3.01-1.49c-.59,1.47-1.93,11.5-.5,11.5,5.15-1.15,8.01-6.91,11.49-10.01.3-.27,2.73.73,2-2,1.7.4-1.35,5.18,1.48,3.99,2.03-.86,7.97-6.98,10.31-5.73,1.54.83-1.41,1.63,2.21.74,1.99-.49,7.53-2,9-2ZM154,147.99c-6.15-5.99-17.07-4.36-24.99-3.98-.08,1.47,3.58,1.76,4.61,1.87,6.7.73,13.61.54,20.38,2.11Z"/>
  <path class="cls-3" d="M229,233c3.89-3.18,6.76-5.55,9-10,.84-1.67,1.75-3.07,2-5,5.07-3.9,4.96-18.16-1.52-19.98-4.38-1.23,2.5,7.55-.48,8.98-2.76-2.77-6.38-2-9.99-1.99-.55,1.84.89,1.76.99,1.99,2.2,5.14,6.2,8.49,3.27,14.77-.71,1.52-2.77,2.18-3.27,3.23l-13.97,2.98c-5.09-11.65,5.53-8.04,6.85-10.1,1.59-2.49-2.09-6.61-1.72-9.14.17-1.12,3.16-6.78,4-8.08,15.9-24.64,33.21,3.48,17.25,24.25-2.29,2.98-7.18,7.85-10.71,8.83-.53.15-1.38-.75-1.7-.74Z"/>
  <path class="cls-3" d="M107,160c2.84-.68,2.46.49,3.66,1.82,8.86,9.79,21.32,40.61,22.32,53.7.08,1.1.74,3.72-.97,3.47-.86-4-1.83-8.44-3.23-12.27-2.87-7.83-8.21-21.9-12.23-28.77-.78-1.33-1.62-3.28-3.18-3.82-3.8-1.3-1.81,2.01-2.37,2.87-.38.58-11.32,4.45-13,4,.61-2.73-1.48-1.84-2.93-2.52-2.93-1.36-16.49-7.19-17.62-8.43-1.76-1.93-1.62-3.5-1.45-6.05,5.81-.32,17.6.18,21.58,4.93,1.14,1.37,1.76,4.71,3,5,.54.12,5.71-1.67,6.19-2.15,1.15-1.15,1.24-4.13,1.23-5.77,0-2.27-.46-3.88-1-6Z"/>
  <path class="cls-9" d="M107,160c-.48-1.9-.97-3.31-2-4.99,2.86-.49,4.28,1.68,6.02,3.47,10.5,10.83,26.98,48.24,26.98,63.02v22c0,.22-1.73,1.83-1.99,1.5-4.65-21.89-11.45-44.64-22.16-64.36-.76-1.4-1.15-3.01-2.85-3.64.56-.86-1.43-4.17,2.37-2.87,1.56.54,2.4,2.49,3.18,3.82,4.02,6.87,9.36,20.94,12.23,28.77,1.41,3.83,2.37,8.27,3.23,12.27,1.72.25,1.06-2.37.97-3.47-1-13.1-13.46-43.91-22.32-53.7-1.21-1.33-.82-2.5-3.66-1.82Z"/>
  <path class="cls-9" d="M107,143c10.33,4.38,17.99,13.33,29,13.5l-8.99-6.49c2.33-.03,4.67,0,7,0-1.65,1.92.16,2.96,1.65,3.86,3.86,2.32,10.02,3.65,14.35,5.16l-7.56,2.09c-3.16-3-13.05-1.82-16.24-3.38-.21-.1-.27-1.62-1.39-2.05-2.63-1.01-5.29-.32-8.18-1.79-3.5-1.79-7.06-7.83-9.62-10.88Z"/>
  <path class="cls-10" d="M140,263v16c-.86,4.92-2.64,12.21-4.81,16.69-.87,1.78-1.61,4.68-4.18,4.31,3.93-14.25,5.56-29.25,6.01-43.99,1.95.85,2.55,5,2.99,7Z"/>
  <path class="cls-10" d="M156,145l16-4.99c-2.19,4.16-7.83,4.3-10.98,7.49-.02,1.95,14.54,3.71,16.97,5.51.32,1.24-4.09,2.05-4.43,2.03-.59-.03-.61-2.01-1.07-2.08-2.66-.45-3.29,1.97-3.5,2.04-.48.17-8.31-4.01-9.01-4.55-.37-.29-1.31-3.96-3.99-5.45Z"/>
  <path class="cls-9" d="M109,124c.81-2,2.58-6.13,4.51-6.99,2.43-1.09.51,5.21.97,6.49,1.85,5.05,4.99,1.26,7.51-.49l1,1c-3.48,3.1-6.34,8.86-11.49,10.01-1.43,0-.09-10.02.5-11.5l-3.01,1.49Z"/>
  <path class="cls-9" d="M229,207c7.2,2.11,6.06,12.19,5.01,18l3.99-2c-2.24,4.45-5.11,6.82-9,10-.17,0-1.05,1.35-1.99,1-.72-1.02,1.71-5.73,2.32-7.28.42-1.08-.37-1.64-.33-1.72.5-1.05,2.56-1.71,3.27-3.23,2.93-6.28-1.07-9.63-3.27-14.77Z"/>
  <path class="cls-10" d="M128,119c1.52-1.02,4.24-2.48,4.02-3.99,1.82-.25,0,2.1,2.43,2.08,5.13-.04,12.06-5.64,17.55-3.6-.8,1.94-6.33,2.7-3.99,5.51-1.47,0-7.01,1.51-9,2-.87-5.83-5.61-1.89-8.28-.78-1.91.79-3.07,1.9-2.72-1.22Z"/>
  <path class="cls-8" d="M156,268c-1.66-1.04-1-3.79-1.02-5.49-.1-8.33-.09-16.7,0-25.03.02-1.69-.64-4.45,1.02-5.49.05,3.55,1,8.12,1,10.5v18c0,1.3-.9,4.94-1,7.5Z"/>
  <path class="cls-9" d="M139,121c-3.62.89-.67.09-2.21-.74-2.34-1.25-8.27,4.87-10.31,5.73-2.84,1.19.22-3.59-1.48-3.99v-1c1.03-.71,1.98-1.32,3-2-.35,3.12.81,2.01,2.72,1.22,2.67-1.11,7.41-5.05,8.28.78Z"/>
  <path class="cls-9" d="M108,126c-.69,2.43-.96,5.46-1,8-2.56.57-3.43-.95-5-2,3.42-1.03,2.28-6.15,6-6Z"/>
  <path class="cls-6" d="M179,244c1.43-2.7,1,1.74,1,2.49,0,1.7.28,13.88-.5,13.5-.71-.35-.44-1-.5-1-.31-4.88.44-10.2,0-15Z"/>
  <path class="cls-6" d="M140,279v-16c1.49,6.74,1.14,9.47,0,16Z"/>
  <path class="cls-8" d="M180,282l-6.51,6.99c-2.52.76.24-4.8.51-5.99l1.48,1.96c1.46-1.06,3.08-1.9,4.52-2.96Z"/>
  <path class="cls-10" d="M125,121v1c.73,2.73-1.7,1.73-2,2l-1-1c1.03-.72,2.01-1.32,3-2Z"/>
  <path class="cls-8" d="M156,230c-4.07.5-1.06-2.15-1-3,1.31.49.95,1.9,1,3Z"/>
  <path class="cls-8" d="M155,272c.06-.85.03-1.73,1-2-.08.85-.02,1.71-1,2Z"/>
  <path class="cls-11" d="M154,147.99c-6.77-1.57-13.69-1.38-20.38-2.11-1.03-.11-4.7-.4-4.61-1.87,7.93-.38,18.84-2.01,24.99,3.98Z"/>
  <path class="cls-8" d="M238,207c2.5,2.51,2.44,7.6,2,11-.25,1.93-1.16,3.33-2,5l-3.99,2c1.05-5.81,2.19-15.89-5.01-18-.1-.24-1.55-.15-.99-1.99,3.62,0,7.23-.78,9.99,1.99Z"/>
  <path class="cls-11" d="M240,218c.44-3.4.5-8.49-2-11,2.97-1.44-3.9-10.22.48-8.98,6.48,1.83,6.59,16.09,1.52,19.98Z"/>
</svg>